<svg width="141" height="128" viewBox="0 0 141 128" fill="none" xmlns="http://www.w3.org/2000/svg">
<g id="Group 1171275105">
<g id="Group">
<path id="Vector" fill-rule="evenodd" clip-rule="evenodd" d="M104.142 106.504V4.7702C104.142 -1.59007 112.453 -1.59007 112.453 4.7702C112.453 19.523 112.453 13.4031 112.453 13.4031C112.453 13.4031 112.884 86.5829 112.884 106.504C112.884 117.192 104.142 117.192 104.142 106.504Z" fill="#03C0FF"/>
</g>
<g id="Group_2">
<path id="Vector_2" fill-rule="evenodd" clip-rule="evenodd" d="M70.9189 108.708V34.9338C70.9189 30.3216 79.2302 30.3216 79.2302 34.9338C79.2302 45.6319 79.2302 41.194 79.2302 41.194C79.2302 41.194 79.6618 94.2612 79.6618 108.708C79.6618 116.458 70.9189 116.458 70.9189 108.708Z" fill="#03C0FF"/>
</g>
<g id="Group_3">
<path id="Vector_3" fill-rule="evenodd" clip-rule="evenodd" d="M7.97007 12.6934C25.0022 12.6934 63.9469 12.7088 67.6533 12.7088C71.36 12.7088 71.5267 14.9625 70.2764 15.8974C46.9915 33.3026 24.1243 68.9863 21.9587 82.8434C22.0281 79.188 58.2682 40.8037 140.796 44.4983C136.905 50.7664 31.3623 45.9375 7.93272 124.523C7.18949 127.016 3.32755 129.53 0.9791 123.829C0.236986 122.027 4.73037 58.8316 57.162 19.0859C57.162 19.0859 22.279 19.0705 7.97007 19.0705C1.24366 19.0705 1.24366 12.6934 7.97007 12.6934Z" fill="#25D366"/>
</g>
</g>
</svg>
